<?xml version="1.0" encoding="utf-8"?>
<!-- Svg Vector Icons : http://www.onlinewebfonts.com/icon -->
<!DOCTYPE svg PUBLIC "-//W3C//DTD SVG 1.1//EN" "http://www.w3.org/Graphics/SVG/1.1/DTD/svg11.dtd">
<svg version="1.1" xmlns="http://www.w3.org/2000/svg" xmlns:xlink="http://www.w3.org/1999/xlink" x="0px" y="0px" viewBox="0 0 1000 1000" enable-background="new 0 0 1000 1000" xml:space="preserve">
<metadata> Svg Vector Icons : http://www.onlinewebfonts.com/icon </metadata>
<g><path d="M502.3,254.7c-65.6,0-127.1,25.5-173.3,71.7c-46.2,46.2-71.7,107.7-71.7,173.3c0,65.6,25.5,126.8,71.7,173.3c46.2,46.2,108,71.7,173.3,71.7c65.6,0,127.1-25.5,173.3-71.7c46.2-46.2,71.7-107.7,71.7-173.3c0-65.6-25.5-126.8-71.7-173.3C629.4,280.3,567.9,254.7,502.3,254.7z M502.3,703.9c-113.1,0-204.2-91.6-204.2-204.2c0-112.5,91.1-204.2,204.2-204.2c113.1,0,204.2,91.6,204.2,204.2C706.5,612.3,615.4,703.9,502.3,703.9z"/><path d="M361.6,58c11.4,16.9,25.8,31.7,42.8,43.6c28.1,19.7,61.1,30.1,95.5,30.1s67.4-10.4,95.5-30.1C612.5,89.7,627,75,638.4,58c26.4,8.2,51.9,18.8,76.4,31.7c-3.9,20-4.1,40.7-0.5,61.1c6,33.8,22,64.5,46.3,88.8c31.5,31.5,73.3,48.8,117.9,48.8c10.8,0,21.5-1,32-3c12.8,24.5,23.4,50.1,31.7,76.4c-16.9,11.4-31.6,25.8-43.5,42.8c-19.7,28.1-30.1,61.1-30.1,95.5c0,34.4,10.4,67.4,30,95.5c11.9,17,26.6,31.4,43.5,42.8c-8.2,26.4-18.9,51.9-31.7,76.5c-10.4-2-21-3-31.8-3c-44.5,0-86.4,17.3-117.9,48.8c-24.3,24.3-40.3,54.9-46.3,88.7c-3.6,20.4-3.4,41,0.4,61c-24.5,12.9-50.1,23.5-76.5,31.7c-11.4-16.9-25.8-31.6-42.8-43.4c-28.1-19.6-61.1-30-95.4-30c-34.3,0-67.3,10.4-95.4,30c-17,11.9-31.4,26.6-42.8,43.4c-26.4-8.2-52-18.8-76.5-31.7c3.9-20,4.1-40.6,0.4-61c-6-33.7-22-64.4-46.3-88.7c-31.5-31.5-73.3-48.8-117.9-48.8c-10.8,0-21.4,1-31.8,3c-12.9-24.5-23.5-50.1-31.7-76.5c16.9-11.4,31.6-25.8,43.5-42.8c19.6-28.1,30-61.1,30-95.5c0-34.4-10.4-67.4-30.1-95.5c-11.9-17-26.6-31.4-43.5-42.8c8.2-26.4,18.8-51.9,31.7-76.4c10.5,2,21.1,3.1,32,3.1c44.5,0,86.4-17.3,117.9-48.8c24.3-24.3,40.3-55,46.3-88.8c3.6-20.4,3.4-41.1-0.5-61.1C309.8,76.9,335.3,66.3,361.6,58 M617.6,10C599.5,57.3,553.7,90.9,500,90.9c-53.7,0-99.5-33.6-117.6-80.9c-52.2,12.5-101.3,33.1-145.8,60.5c20.6,46.2,11.9,102.3-26,140.3c-24.6,24.6-56.8,36.9-89,36.9c-17.5,0-35-3.6-51.3-10.9C43.1,281.2,22.5,330.3,10,382.6c47.2,18.2,80.8,63.9,80.8,117.6c0,53.6-33.5,99.4-80.7,117.5c12.5,52.2,33.1,101.3,60.5,145.8c16.2-7.2,33.7-10.8,51.1-10.8c32.2,0,64.4,12.3,89,36.9c37.9,37.9,46.5,93.9,26.1,140.1c44.5,27.3,93.6,47.9,145.8,60.4c18.2-47.2,63.9-80.6,117.5-80.6c53.6,0,99.3,33.5,117.5,80.6c52.2-12.5,101.3-33.1,145.8-60.4c-20.5-46.2-11.8-102.2,26.1-140.1c24.6-24.6,56.8-36.9,89-36.9c17.4,0,34.9,3.6,51.1,10.8c27.3-44.5,48-93.6,60.5-145.8c-47.2-18.2-80.7-63.9-80.7-117.5c0-53.6,33.5-99.4,80.8-117.6c-12.5-52.2-33.1-101.3-60.4-145.8c-16.3,7.2-33.8,10.9-51.3,10.9c-32.2,0-64.4-12.3-89-36.9c-37.9-37.9-46.6-94-26-140.3C718.9,43.1,669.8,22.5,617.6,10L617.6,10z"/></g>
</svg>